<svg xmlns="http://www.w3.org/2000/svg" width="63.974" height="63.975" viewBox="0 0 63.974 63.975">
  <g id="noun-settings-1141106" transform="translate(-96.427 -26.428)">
    <path id="Path_144" data-name="Path 144" d="M131.094,89.9h-5.36a3.354,3.354,0,0,1-3.35-3.35V82.444a24.564,24.564,0,0,1-6.693-2.779l-2.911,2.91a3.43,3.43,0,0,1-4.737,0l-3.79-3.79a3.355,3.355,0,0,1,0-4.737l2.91-2.91a24.555,24.555,0,0,1-2.779-6.693h-4.109a3.354,3.354,0,0,1-3.35-3.35v-5.36a3.354,3.354,0,0,1,3.35-3.35h4.109a24.6,24.6,0,0,1,2.779-6.694l-2.91-2.91a3.355,3.355,0,0,1,0-4.737l3.79-3.789a3.43,3.43,0,0,1,4.737,0l2.911,2.91a24.585,24.585,0,0,1,6.693-2.779V30.278a3.354,3.354,0,0,1,3.35-3.35h5.36a3.354,3.354,0,0,1,3.35,3.35v4.109a24.574,24.574,0,0,1,6.693,2.779l2.911-2.91a3.43,3.43,0,0,1,4.737,0l3.79,3.789a3.354,3.354,0,0,1,0,4.737l-2.91,2.91a24.574,24.574,0,0,1,2.779,6.694h4.11a3.354,3.354,0,0,1,3.35,3.35v5.36a3.354,3.354,0,0,1-3.35,3.35h-4.109a24.577,24.577,0,0,1-2.779,6.693l2.91,2.91a3.354,3.354,0,0,1,0,4.737l-3.79,3.789a3.43,3.43,0,0,1-4.737,0l-2.911-2.91a24.581,24.581,0,0,1-6.693,2.78v4.109A3.354,3.354,0,0,1,131.094,89.9ZM115.5,77.964l.453.285a23.214,23.214,0,0,0,7.254,3.011l.521.12v5.172a2.012,2.012,0,0,0,2.01,2.01h5.36a2.012,2.012,0,0,0,2.01-2.01V81.38l.521-.119a23.262,23.262,0,0,0,7.254-3.011l.453-.285,3.663,3.663a2.058,2.058,0,0,0,2.842,0l3.79-3.789a2.012,2.012,0,0,0,0-2.843l-3.663-3.663.285-.453a23.26,23.26,0,0,0,3.011-7.254l.119-.521h5.172a2.012,2.012,0,0,0,2.01-2.01v-5.36a2.012,2.012,0,0,0-2.01-2.01h-5.173l-.119-.521a23.241,23.241,0,0,0-3.011-7.254l-.285-.453,3.663-3.663a2.012,2.012,0,0,0,0-2.843l-3.79-3.789a2.058,2.058,0,0,0-2.842,0l-3.663,3.663-.453-.285a23.227,23.227,0,0,0-7.254-3.011l-.521-.118V30.278a2.012,2.012,0,0,0-2.01-2.01h-5.36a2.012,2.012,0,0,0-2.01,2.01v5.173l-.521.119a23.235,23.235,0,0,0-7.254,3.011l-.453.285L111.833,35.2a2.058,2.058,0,0,0-2.842,0l-3.79,3.789a2.014,2.014,0,0,0,0,2.843l3.663,3.663-.285.453a23.24,23.24,0,0,0-3.011,7.254l-.119.521h-5.172a2.012,2.012,0,0,0-2.01,2.01v5.36a2.012,2.012,0,0,0,2.01,2.01h5.173l.119.521a23.266,23.266,0,0,0,3.011,7.254l.285.453L105.2,75a2.014,2.014,0,0,0,0,2.843l3.79,3.789a2.058,2.058,0,0,0,2.842,0Z" transform="translate(0)" fill="#003dad" stroke="#003dad" stroke-width="1"/>
    <path id="Union_8" data-name="Union 8" d="M19220.93,8085.825a15.908,15.908,0,1,1,15.906,15.906A15.927,15.927,0,0,1,19220.93,8085.825Zm2.338,0a13.57,13.57,0,1,0,13.568-13.572A13.583,13.583,0,0,0,19223.268,8085.825Z" transform="translate(-19108.422 -8027.409)" fill="#ea6d00"/>
  </g>
</svg>
