<svg xmlns="http://www.w3.org/2000/svg" width="63.221" height="73.003" viewBox="0 0 63.221 73.003">
  <g id="Group_20745" data-name="Group 20745" transform="translate(-518.178 -749.499)">
    <path id="Path_3692" data-name="Path 3692" d="M181.722,123.88a25.144,25.144,0,0,0-25.172,25.063,25.147,25.147,0,0,0,24.843,25.063c10.773,1.1,25.5-9.014,25.5-25.172a25.122,25.122,0,0,0-25.172-24.952ZM198.761,165.1l-2.419-2.419-1.209,1.209,2.419,2.419a23.241,23.241,0,0,1-15.28,6.156v-3.3h-1.649v3.188a23.6,23.6,0,0,1-15.059-6.375l2.089-2.089-1.209-1.209-2.089,2.089a23.365,23.365,0,0,1-6.156-15.059h2.968v-1.649H158.2A23.358,23.358,0,0,1,164.355,133l2.089,2.089,1.209-1.209-1.979-1.869a23.126,23.126,0,0,1,15.059-6.375v3.188h1.649v-3.3a23.018,23.018,0,0,1,15.28,6.156l-2.419,2.419,1.209,1.209,2.418-2.418a22.7,22.7,0,0,1,6.375,15.28h-3.518v1.649h3.518a23.092,23.092,0,0,1-6.485,15.28Z" transform="translate(368.174 641.949)" fill="#4296e0"/>
    <path id="Path_3692_-_Outline" data-name="Path 3692 - Outline" d="M181.722,123.38l.209,0a25.753,25.753,0,0,1,23.439,15.559,24.98,24.98,0,0,1,2.026,9.892,25.374,25.374,0,0,1-2.289,10.633,26.06,26.06,0,0,1-5.841,8.116c-4.639,4.386-10.711,7-16.243,7-.56,0-1.116-.027-1.655-.081A24.48,24.48,0,0,1,171.7,172.5a26.27,26.27,0,0,1-8.25-5.616,25.373,25.373,0,0,1-5.467-27.628,26.051,26.051,0,0,1,5.463-8.251l0,0A25.954,25.954,0,0,1,172,125.3,25.521,25.521,0,0,1,181.722,123.38Zm1.3,50.207c5.283,0,11.1-2.516,15.556-6.731a25.065,25.065,0,0,0,5.618-7.806,24.381,24.381,0,0,0,2.2-10.217,23.986,23.986,0,0,0-1.945-9.5,24.462,24.462,0,0,0-5.3-7.775,24.709,24.709,0,0,0-17.428-7.179h-.208a24.525,24.525,0,0,0-9.14,1.844,24.545,24.545,0,0,0-13.468,13.414,24.373,24.373,0,0,0,5.251,26.538,25.274,25.274,0,0,0,7.937,5.4,23.484,23.484,0,0,0,9.3,1.924h.025l.025,0A15.614,15.614,0,0,0,183.023,173.587Zm-1.141-48.567.509.009a23.424,23.424,0,0,1,8.522,1.755A23.913,23.913,0,0,1,198,131.317l.384.353L195.95,134.1l.5.5,2.428-2.428.353.374a24.1,24.1,0,0,1,4.686,7.086,22.645,22.645,0,0,1,1.826,8.528l.009.509h-3.527v.649h3.536l-.019.518a23.576,23.576,0,0,1-6.626,15.61l-.848.872,0,0-.384.353a23.73,23.73,0,0,1-15.608,6.288l-.509.01v-3.307h-.649v3.208l-.52-.02a23.235,23.235,0,0,1-8.242-1.867,25.042,25.042,0,0,1-7.136-4.64l-.383-.353,2.1-2.1-.5-.5-2.1,2.1-.353-.383a23.608,23.608,0,0,1-4.534-7.145,24.394,24.394,0,0,1-1.754-8.234l-.02-.52h2.988v-.649H157.68l.02-.52a24.387,24.387,0,0,1,1.754-8.234,23.6,23.6,0,0,1,4.534-7.145l.353-.383,2.1,2.1.492-.492-1.99-1.879.384-.364a23.921,23.921,0,0,1,7.059-4.645,23.406,23.406,0,0,1,8.325-1.867l.519-.02v3.207h.649Zm15.053,6.684a22.854,22.854,0,0,0-6.4-4,22.387,22.387,0,0,0-7.65-1.665v3.283h-2.649v-3.162a22.391,22.391,0,0,0-7.451,1.762,22.879,22.879,0,0,0-6.376,4.092l1.964,1.855-1.926,1.926-2.07-2.07a22.58,22.58,0,0,0-3.994,6.455,23.32,23.32,0,0,0-1.655,7.378h2.943v2.649h-2.943a23.328,23.328,0,0,0,1.656,7.378,22.587,22.587,0,0,0,3.994,6.456l2.07-2.07,1.916,1.916-2.07,2.07a23.97,23.97,0,0,0,6.464,4.107,22.264,22.264,0,0,0,7.369,1.761v-3.162h2.649v3.282a22.729,22.729,0,0,0,14.053-5.66l-2.4-2.4,1.916-1.916,2.41,2.41a22.571,22.571,0,0,0,5.969-14.063h-3.493v-2.649h3.5A21.633,21.633,0,0,0,203,140.03a23.012,23.012,0,0,0-4.143-6.415l-2.4,2.4-1.916-1.916Zm1.326,33.6-1.919-1.919-.5.5,2.42,2.42Z" transform="translate(368.174 641.949)" fill="#4296e0"/>
    <path id="Path_3693" data-name="Path 3693" d="M269.091,226.146c0-.11-.33-.33-.33-.33l-16.049-8.244a1.069,1.069,0,0,0-.989.11.818.818,0,0,0-.11.989l8.244,16.049c0,.11.33.33.33.33l16.049,8.244a.838.838,0,0,0,.989-.11.818.818,0,0,0,.11-.989Zm-5.606,4.287a.867.867,0,0,1,.88-.88.946.946,0,0,1,.88.88.867.867,0,0,1-.88.88C263.925,231.422,263.485,230.982,263.485,230.433Zm3.407-3.628-1.429,1.429a3.253,3.253,0,0,0-1.1-.22,2.557,2.557,0,0,0-2.528,2.528,2.759,2.759,0,0,0,.22,1.1l-1.429,1.429-6.6-12.861Zm-5.057,7.365,1.429-1.429a3.909,3.909,0,0,0,1.1.22,2.557,2.557,0,0,0,2.528-2.528,2.759,2.759,0,0,0-.22-1.1L268.1,227.9l6.6,12.861Z" transform="translate(285.531 560.459)" fill="#ea6d00"/>
    <path id="Path_3693_-_Outline" data-name="Path 3693 - Outline" d="M252.3,217h0a1.778,1.778,0,0,1,.568.1l.036.012.034.018,16.074,8.257.024.016a1.163,1.163,0,0,1,.529.579l8.2,15.966a1.327,1.327,0,0,1-.19,1.593l-.035.035-.041.028a1.586,1.586,0,0,1-.888.313,1.16,1.16,0,0,1-.629-.186l-16.052-8.246-.024-.016a1.162,1.162,0,0,1-.529-.579l-8.2-15.966a1.327,1.327,0,0,1,.19-1.593l.035-.035.041-.028A1.524,1.524,0,0,1,252.3,217Zm.219,1.036a.558.558,0,0,0-.47.031.319.319,0,0,0-.022.327l.016.024.013.025,8.259,16.078a1.554,1.554,0,0,0,.127.1l16.046,8.243.023.016a.171.171,0,0,0,.1.036.588.588,0,0,0,.281-.112.32.32,0,0,0,.024-.33l-.016-.024-8.272-16.1a1.561,1.561,0,0,0-.127-.1Zm.357,1.022,14.854,7.617-2.169,2.169-.322-.161a2.845,2.845,0,0,0-.876-.167,2.056,2.056,0,0,0-2.028,2.028,2.306,2.306,0,0,0,.167.876l.161.322-2.169,2.169Zm13.176,7.88-10.869-5.573,5.574,10.869.717-.717a3.612,3.612,0,0,1-.139-.973,3.059,3.059,0,0,1,.869-2.107,2.989,2.989,0,0,1,2.159-.921,4.073,4.073,0,0,1,.968.144Zm2.18.129,7.617,14.853L261,234.3l2.133-2.133.293.1a3.414,3.414,0,0,0,.941.194,2.056,2.056,0,0,0,2.028-2.028,2.305,2.305,0,0,0-.167-.876l-.161-.322Zm5.311,12.547-5.574-10.869-.717.717a3.612,3.612,0,0,1,.139.973,3.059,3.059,0,0,1-.869,2.107,2.989,2.989,0,0,1-2.159.921,3.862,3.862,0,0,1-.957-.154l-.732.732Zm-9.18-10.559a1.434,1.434,0,0,1,1.38,1.38,1.364,1.364,0,0,1-1.321,1.378,1.066,1.066,0,0,1-.2.018,1.344,1.344,0,0,1-1.242-1.4A1.366,1.366,0,0,1,264.365,229.053Zm0,1.759a.369.369,0,0,0,.38-.38.459.459,0,0,0-.38-.38.369.369,0,0,0-.38.38c0,.242.159.4.242.4l.016,0,.06-.015Z" transform="translate(285.531 560.459)" fill="#ea6d00"/>
    <path id="Union_7" data-name="Union 7" d="M19634,8630.39a31.351,31.351,0,0,1,27.484-31.218V8596.6h-4.117a1.365,1.365,0,0,1-1.379-1.379v-4.84a1.364,1.364,0,0,1,1.379-1.379h16.268a1.364,1.364,0,0,1,1.379,1.379v4.73a1.365,1.365,0,0,1-1.379,1.38h-3.895v2.684a31.554,31.554,0,1,1-35.74,31.218Zm20.336-26.6a28.975,28.975,0,1,0,22.547,53.384,29.21,29.21,0,0,0,15.408-15.443,28.86,28.86,0,0,0-15.408-37.94,29.438,29.438,0,0,0-22.547,0Zm12.75-4.934v-2.367h-2.957v2.367c.5-.029,1.014-.044,1.523-.044C19666.145,8598.812,19666.629,8598.826,19667.084,8598.855Zm-8.34-4.908h13.619v-2.186h-13.619Z" transform="translate(-19115.82 -7839.5)" fill="#003dad"/>
  </g>
</svg>
