<svg xmlns="http://www.w3.org/2000/svg" width="17.508" height="17.508" viewBox="0 0 17.508 17.508">
  <g id="Group_20289" data-name="Group 20289" transform="translate(-1.5 -1.5)">
    <path id="Path_128" data-name="Path 128" d="M5,16.143h1.99A3.79,3.79,0,0,0,9.69,15.029l8.2-8.2a3.122,3.122,0,0,0,0-4.377A2.842,2.842,0,0,0,15.738,1.5a3.42,3.42,0,0,0-2.228.875l-8.2,8.276A3.977,3.977,0,0,0,4.2,13.437v1.99A.785.785,0,0,0,5,16.143Zm.8-2.785a2.222,2.222,0,0,1,.637-1.592L12.953,5.24l1.114,1.035a.86.86,0,0,0,.557.239.722.722,0,0,0,.557-.239.769.769,0,0,0,0-1.114L14.067,4.047l.557-.557a1.9,1.9,0,0,1,1.114-.4,1.283,1.283,0,0,1,1.035.477,1.59,1.59,0,0,1,0,2.149l-8.2,8.2a2.366,2.366,0,0,1-1.592.637H5.791Z" transform="translate(-1.267 0)" fill="#aab2c0"/>
    <path id="Path_129" data-name="Path 129" d="M18.212,31.5H2.3a.8.8,0,1,0,0,1.592H18.212a.8.8,0,1,0,0-1.592Z" transform="translate(0 -14.084)" fill="#aab2c0"/>
  </g>
</svg>
