<svg xmlns="http://www.w3.org/2000/svg" width="72" height="72" viewBox="0 0 72 72">
  <g id="Group_20375" data-name="Group 20375" transform="translate(856 -20825)">
    <path id="Path_134" data-name="Path 134" d="M342.375,5.625A1.125,1.125,0,0,0,343.5,4.5V1.125a1.125,1.125,0,1,0-2.25,0V4.5A1.125,1.125,0,0,0,342.375,5.625Z" transform="translate(-1162.375 20825)" fill="#ea6d00"/>
    <path id="Path_135" data-name="Path 135" d="M342.375,516.25a1.125,1.125,0,0,0-1.125,1.125v3.375a1.125,1.125,0,1,0,2.25,0v-3.375A1.125,1.125,0,0,0,342.375,516.25Z" transform="translate(-1162.375 20375.125)" fill="#ea6d00"/>
    <path id="Path_136" data-name="Path 136" d="M590.75,271.25h-3.375a1.125,1.125,0,0,0,0,2.25h3.375a1.125,1.125,0,1,0,0-2.25Z" transform="translate(-1375.875 20588.625)" fill="#ea6d00"/>
    <path id="Path_137" data-name="Path 137" d="M74.5,271.25H71.125a1.125,1.125,0,1,0,0,2.25H74.5a1.125,1.125,0,0,0,0-2.25Z" transform="translate(-926 20588.625)" fill="#ea6d00"/>
    <path id="Path_138" data-name="Path 138" d="M152.164,83.76a1.125,1.125,0,1,0,1.591-1.591l-2.387-2.387a1.125,1.125,0,0,0-1.591,1.591Z" transform="translate(-995.234 20755.762)" fill="#4296e0"/>
    <path id="Path_139" data-name="Path 139" d="M152.16,444.827l-2.387,2.386a1.125,1.125,0,1,0,1.591,1.591l2.387-2.386a1.125,1.125,0,1,0-1.591-1.591Z" transform="translate(-995.23 20437.652)" fill="#4296e0"/>
    <path id="Path_140" data-name="Path 140" d="M515.614,84.087a1.122,1.122,0,0,0,.8-.329l2.386-2.387a1.125,1.125,0,0,0-1.591-1.591l-2.386,2.387a1.125,1.125,0,0,0,.8,1.92Z" transform="translate(-1313.341 20755.764)" fill="#4296e0"/>
    <path id="Path_141" data-name="Path 141" d="M219.678,143.525a1.124,1.124,0,0,0-.785-.369,1.163,1.163,0,0,0-.785.273l-2.488-2.606a22.527,22.527,0,1,0-5.947,5.584l2.456,2.57-.2.177.013.015a1.122,1.122,0,0,0,.033,1.464l10.63,11.749a3.5,3.5,0,0,0,2.595,1.109h0a3.906,3.906,0,0,0,2.642-1.042l2.129-1.951a3.892,3.892,0,0,0,1.27-2.693,3.444,3.444,0,0,0-.911-2.5Zm-42.43-16.034a20.25,20.25,0,1,1,20.25,20.25A20.273,20.273,0,0,1,177.248,127.491Zm34.271,17.591a22.716,22.716,0,0,0,2.669-2.5l2.334,2.445-2.72,2.448Zm16.937,13.757-2.129,1.951a1.664,1.664,0,0,1-1.122.45,1.269,1.269,0,0,1-.937-.38l-9.864-10.9,4.444-4,9.832,10.867a1.214,1.214,0,0,1,.319.892,1.628,1.628,0,0,1-.542,1.122Z" transform="translate(-1017.498 20733.508)" fill="#003dad"/>
    <path id="Path_142" data-name="Path 142" d="M235.625,148.75A16.875,16.875,0,1,0,252.5,165.625,16.875,16.875,0,0,0,235.625,148.75Zm0,31.5a14.625,14.625,0,1,1,14.625-14.625A14.642,14.642,0,0,1,235.625,180.25Z" transform="translate(-1055.625 20695.375)" fill="#4296e0"/>
    <path id="Path_143" data-name="Path 143" d="M296.461,214.455l-10.625,4.224a1.124,1.124,0,0,0-.594.548l-5.125,10.4a1.125,1.125,0,0,0,1.425,1.542l10.625-4.223a1.124,1.124,0,0,0,.594-.548l5.125-10.4a1.124,1.124,0,0,0-1.425-1.542Zm-10.006,7.4,3.535,3.535L283.427,228Zm5.094,1.912-3.534-3.535,6.561-2.608Z" transform="translate(-1109.001 20638.188)" fill="#ea6d00"/>
  </g>
</svg>
