<svg xmlns="http://www.w3.org/2000/svg" width="33.8" height="30.8" viewBox="0 0 33.8 30.8">
  <g id="Group_20239" data-name="Group 20239" transform="translate(-1.15 -2.55)">
    <path id="Path_124" data-name="Path 124" d="M7.5,7.808A4.734,4.734,0,0,1,12.266,3h4.686a5.877,5.877,0,0,1,4.192,1.741l1.548,1.568h7.042A4.734,4.734,0,0,1,34.5,11.116V22.192A4.734,4.734,0,0,1,29.734,27H12.266A4.734,4.734,0,0,1,7.5,22.192ZM12.266,6A1.736,1.736,0,0,0,10.5,7.808V22.192A1.736,1.736,0,0,0,12.266,24H29.734A1.736,1.736,0,0,0,31.5,22.192V11.116a1.736,1.736,0,0,0-1.766-1.808H22.065A1.5,1.5,0,0,1,21,8.862L19.01,6.848A2.877,2.877,0,0,0,16.953,6Z" fill="#003aae" stroke="#fff" stroke-width="0.9" fill-rule="evenodd"/>
    <path id="Path_125" data-name="Path 125" d="M3,9a1.5,1.5,0,0,1,1.5,1.5V25.088A4.844,4.844,0,0,0,9.234,30H27a1.5,1.5,0,0,1,0,3H9.234A7.843,7.843,0,0,1,1.5,25.088V10.5A1.5,1.5,0,0,1,3,9Z" fill="#4296e0" stroke="#fff" stroke-width="0.7" fill-rule="evenodd"/>
    <g id="Group_20240" data-name="Group 20240" transform="translate(-64.5 -21)">
      <path id="Path_126" data-name="Path 126" d="M12,21a1.5,1.5,0,0,1,1.5-1.5h9a1.5,1.5,0,0,1,0,3h-9A1.5,1.5,0,0,1,12,21Z" transform="translate(66.5 15)" fill="#4296e0" stroke="#fff" stroke-width="1" fill-rule="evenodd"/>
      <path id="Path_127" data-name="Path 127" d="M12,25.5A1.5,1.5,0,0,1,13.5,24H18a1.5,1.5,0,0,1,0,3H13.5A1.5,1.5,0,0,1,12,25.5Z" transform="translate(66.5 15)" fill="#ea6d00" stroke="#fff" stroke-width="1" fill-rule="evenodd"/>
    </g>
  </g>
</svg>
