<svg xmlns="http://www.w3.org/2000/svg" xmlns:xlink="http://www.w3.org/1999/xlink" width="562" height="340" viewBox="0 0 562 340">
  <defs>
    <linearGradient id="linear-gradient" x1="0.5" y1="0.882" x2="0.5" y2="0.214" gradientUnits="objectBoundingBox">
      <stop offset="0" stop-color="#d7e1f3" stop-opacity="0"/>
      <stop offset="1" stop-color="#d7e1f3"/>
    </linearGradient>
    <linearGradient id="linear-gradient-2" x1="0.5" y1="0.118" x2="0.5" y2="0.786" xlink:href="#linear-gradient"/>
    <linearGradient id="linear-gradient-3" x1="0.5" x2="0.5" y2="1" gradientUnits="objectBoundingBox">
      <stop offset="0" stop-color="#fbeae5"/>
      <stop offset="1" stop-color="#f5cfc7"/>
    </linearGradient>
    <linearGradient id="linear-gradient-5" x1="0.335" y1="0.303" x2="0.5" y2="0.97" gradientUnits="objectBoundingBox">
      <stop offset="0" stop-color="#f69624"/>
      <stop offset="1" stop-color="#d76525"/>
    </linearGradient>
    <linearGradient id="linear-gradient-6" x1="0.652" y1="1" x2="0.573" y2="0.234" gradientUnits="objectBoundingBox">
      <stop offset="0" stop-color="#6984d8"/>
      <stop offset="1" stop-color="#acd2ff"/>
    </linearGradient>
    <linearGradient id="linear-gradient-7" x1="0.485" y1="0.893" x2="0.532" y2="0.142" gradientUnits="objectBoundingBox">
      <stop offset="0" stop-color="#becbe9"/>
      <stop offset="1" stop-color="#283659"/>
    </linearGradient>
    <linearGradient id="linear-gradient-8" x1="0.52" y1="1" x2="0.491" y2="-0.201" gradientUnits="objectBoundingBox">
      <stop offset="0" stop-color="#becbe9"/>
      <stop offset="1" stop-color="#4e5e89"/>
    </linearGradient>
    <linearGradient id="linear-gradient-9" x1="0.5" x2="0.5" y2="1" gradientUnits="objectBoundingBox">
      <stop offset="0" stop-color="#ffe4d3"/>
      <stop offset="1" stop-color="#ffc4a7"/>
    </linearGradient>
    <linearGradient id="linear-gradient-11" x1="0.331" y1="0.728" x2="0.638" y2="0.364" xlink:href="#linear-gradient-6"/>
    <linearGradient id="linear-gradient-12" x1="0.607" x2="0.46" y2="0.28" xlink:href="#linear-gradient-6"/>
    <linearGradient id="linear-gradient-14" x1="0.259" y1="0.728" x2="0.696" y2="0.364" gradientUnits="objectBoundingBox">
      <stop offset="0" stop-color="#7a98f7"/>
      <stop offset="1" stop-color="#acd2ff"/>
    </linearGradient>
    <linearGradient id="linear-gradient-15" x1="0.9" y1="0.452" x2="-0.118" y2="0.548" gradientUnits="objectBoundingBox">
      <stop offset="0" stop-color="#fff"/>
      <stop offset="1" stop-color="#ecf4ff"/>
    </linearGradient>
    <linearGradient id="linear-gradient-16" x1="1.459" y1="0.491" x2="-0.118" y2="0.505" gradientUnits="objectBoundingBox">
      <stop offset="0" stop-color="#fff"/>
      <stop offset="1" stop-color="#deebff"/>
    </linearGradient>
    <linearGradient id="linear-gradient-18" x1="1.459" y1="-0.407" x2="-0.118" y2="1" gradientUnits="objectBoundingBox">
      <stop offset="0" stop-color="#fff"/>
      <stop offset="1" stop-color="#bad6ff"/>
    </linearGradient>
    <linearGradient id="linear-gradient-19" y1="1" y2="0" xlink:href="#linear-gradient-3"/>
    <linearGradient id="linear-gradient-21" y1="0.5" x2="1" y2="0.5" gradientUnits="objectBoundingBox">
      <stop offset="0" stop-color="#f3d4cb"/>
      <stop offset="1" stop-color="#f3bcaa"/>
    </linearGradient>
    <linearGradient id="linear-gradient-23" x1="0.458" y1="0.107" x2="0.587" y2="0.858" xlink:href="#linear-gradient-7"/>
    <linearGradient id="linear-gradient-24" x1="0.567" y1="0" x2="0.469" y2="1.201" xlink:href="#linear-gradient-8"/>
    <linearGradient id="linear-gradient-25" x1="0.374" y1="0.272" x2="0.603" y2="0.636" xlink:href="#linear-gradient-6"/>
    <linearGradient id="linear-gradient-26" x1="-0.046" y1="0.344" x2="0.944" y2="0.593" gradientUnits="objectBoundingBox">
      <stop offset="0" stop-color="#5b7ff0"/>
      <stop offset="1" stop-color="#acd2ff"/>
    </linearGradient>
    <linearGradient id="linear-gradient-28" x1="-0.046" y1="0.275" x2="0.944" y2="0.634" xlink:href="#linear-gradient-14"/>
  </defs>
  <g id="新需求2020.12.08" transform="translate(8 -8)">
    <g id="_01首页-1" data-name="01首页-1" transform="translate(-440 -422)">
      <g id="pic01" transform="translate(432 430)">
        <g id="Pic01.2" transform="translate(115)">
          <g id="矩形">
            <rect id="Rectangle_6629" data-name="Rectangle 6629" width="346" height="228" rx="12"/>
            <rect id="Rectangle_6630" data-name="Rectangle 6630" width="346" height="228" rx="12" fill="#fff"/>
          </g>
          <path id="路径" d="M12,0H334a12,12,0,0,1,12,12v8H0V12A12,12,0,0,1,12,0Z" fill="#dfe9ee"/>
          <g id="编组" transform="translate(8 5)">
            <circle id="椭圆形" cx="4.83" cy="4.83" r="4.83" transform="translate(30.17 0.17)" fill="#29ca4a"/>
            <circle id="椭圆形-2" data-name="椭圆形" cx="4.83" cy="4.83" r="4.83" transform="translate(15.35 0.17)" fill="#ffbe37"/>
            <circle id="椭圆形-3" data-name="椭圆形" cx="4.83" cy="4.83" r="4.83" transform="translate(0.54 0.17)" fill="#fe5f56"/>
          </g>
          <path id="形状" d="M33.72,52.89c2.55-7-2.23-8.94-5.35-8.93H18.05a1.74,1.74,0,0,1,.55,2.06l-6,21.45a3.27,3.27,0,0,1-1.62,1.88h8.35a1.49,1.49,0,0,1-.89-1.82l2.18-7.76s10,1.5,13.08-6.89m-5.95-.41c-2,6.71-6.58,5.34-6.58,5.34L24.5,45.93h1.08c1.09,0,4.12.16,2.18,6.55m12.75,13a8.09,8.09,0,0,0,2.1-5H39.69a1.36,1.36,0,0,1,.57,1.12,4.41,4.41,0,0,1-.74,2.37,13.22,13.22,0,0,1-2.09-5.38,17.27,17.27,0,0,0,4-2.57,4.45,4.45,0,0,0,1.51-3v-.09a3,3,0,0,0-.76-2,3.72,3.72,0,0,0-3.57-1,5.32,5.32,0,0,0-2.56,1.41c-1.7,1.77-1.92,4.7-1.92,6v.71l-.27.12c-1.24.51-4.54,1.5-5.73,4.54a6.51,6.51,0,0,0-.36,2.19,5.19,5.19,0,0,0,.64,2.61,4.67,4.67,0,0,0,4.52,2.32c2.46,0,4.89-1.92,5.32-2.27a13.38,13.38,0,0,0,2.11,1.9h5.61a15.18,15.18,0,0,1-5.51-3.88m-6.27,1.7a2.63,2.63,0,0,1-3-2.9c0-2.16,2.11-3.75,3.25-4.3a19.27,19.27,0,0,0,2.62,6.1,7.39,7.39,0,0,1-2.86,1.1m3.71-14.82c.57-1,1.32-1.42,1.93-1.18s.55.69.5,1.23c-.29,2-2.66,4.11-3.23,4.4a7.73,7.73,0,0,1,.8-4.45m18.34,6-2.57,9.18c-.34.07-7.56,2.09-3.53-12,.87-3,3.29-8.58,7.26-9.65,3.34-.89,6.09,2,6.35,2.22l.95-3.38c-1.33-.45-10.91-4-17.66,4.59-4.16,5.32-5.16,16.19.12,19.1,5.66,3.11,11.89-.49,12.35-.75L62.1,58.6a3.15,3.15,0,0,1,2-2.3h-9a1.8,1.8,0,0,1,1.11,2.16" fill="#0039aa" fill-rule="evenodd"/>
          <path id="形状-2" data-name="形状" d="M45.88,185.67h-16a3,3,0,0,0-3,3v16a3,3,0,0,0,3,3h16a3,3,0,0,0,3-3v-16a3,3,0,0,0-3-3Zm0-30h-16a3,3,0,0,0-3,3v16a3,3,0,0,0,3,3h16a3,3,0,0,0,3-3v-16a3,3,0,0,0-3-3Zm0-30h-16a3,3,0,0,0-3,3v16a3,3,0,0,0,3,3h16a3,3,0,0,0,3-3v-16a3,3,0,0,0-3-3Zm0-30h-16a3,3,0,0,0-3,3v16a3,3,0,0,0,3,3h16a3,3,0,0,0,3-3v-16a3,3,0,0,0-3-3Z" fill="#dfe9ee"/>
          <rect id="矩形-2" data-name="矩形" width="249.33" height="26.09" rx="4" transform="translate(81.21 43.61)" fill="#dfe9ee"/>
          <path id="形状-3" data-name="形状" d="M322.09,62l-2.19-2.19a6.37,6.37,0,1,0-1.39,1.39l2.19,2.19A1,1,0,1,0,322.09,62m-7.34-1.25a4.7,4.7,0,1,1,4.7-4.7,4.7,4.7,0,0,1-4.7,4.7" fill="#0039aa" fill-rule="evenodd"/>
          <g id="编组-2" data-name="编组" transform="translate(81 95)">
            <g id="矩形-3" data-name="矩形">
              <rect id="Rectangle_6631" data-name="Rectangle 6631" width="16" height="112" transform="translate(80.21 0.67)" fill="#cddc39"/>
              <rect id="Rectangle_6632" data-name="Rectangle 6632" width="16" height="85" transform="translate(60.21 27.67)" fill="#4a90e2"/>
              <rect id="Rectangle_6633" data-name="Rectangle 6633" width="16" height="40" transform="translate(40.21 72.67)" fill="#b8e986"/>
              <rect id="Rectangle_6634" data-name="Rectangle 6634" width="16" height="70" transform="translate(20.21 42.67)" fill="#3e50b4"/>
              <rect id="Rectangle_6635" data-name="Rectangle 6635" width="16" height="50" transform="translate(0.21 62.67)" fill="#f44336"/>
            </g>
            <g id="椭圆形-4" data-name="椭圆形" transform="translate(131 11)">
              <circle id="Ellipse_30" data-name="Ellipse 30" cx="11.67" cy="11.67" r="11.67" transform="translate(71.33 0)" fill="#fda913"/>
              <circle id="Ellipse_31" data-name="Ellipse 31" cx="7.35" cy="7.35" r="7.35" transform="translate(54.93 17.99)" fill="#ffc107"/>
              <circle id="Ellipse_32" data-name="Ellipse 32" cx="9.69" cy="9.69" r="9.69" transform="translate(30.27 13.64)" fill="#4cae4b"/>
              <circle id="Ellipse_33" data-name="Ellipse 33" cx="8.19" cy="8.19" r="8.19" transform="translate(18.92 59.16)" fill="#f44032"/>
              <circle id="Ellipse_34" data-name="Ellipse 34" cx="7.36" cy="7.36" r="7.36" transform="translate(63.4 35.97)" fill="#d0021b"/>
              <circle id="Ellipse_35" data-name="Ellipse 35" cx="7.36" cy="7.36" r="7.36" transform="translate(18.31 35.97)" fill="#ff9800"/>
              <circle id="Ellipse_36" data-name="Ellipse 36" cx="7.36" cy="7.36" r="7.36" transform="translate(0.47 59.17)" fill="#4890e1"/>
              <circle id="Ellipse_37" data-name="Ellipse 37" cx="5.91" cy="5.91" r="5.91" transform="translate(43.74 35.98)" fill="#13bddf"/>
              <circle id="Ellipse_38" data-name="Ellipse 38" cx="5.91" cy="5.91" r="5.91" transform="translate(27.12 44.78)" fill="#b8e986"/>
              <circle id="Ellipse_39" data-name="Ellipse 39" cx="5.05" cy="5.05" r="5.05" transform="translate(45.46 44.78)" fill="#673ab7"/>
              <circle id="Ellipse_40" data-name="Ellipse 40" cx="5.05" cy="5.05" r="5.05" transform="translate(5.09 76.95)" fill="#50e3c2"/>
            </g>
            <path id="路径-2" data-name="路径" d="M116.33,2.33V111H245.67" fill="none" stroke="#dfe9ee" stroke-width="1.5" fill-rule="evenodd"/>
          </g>
        </g>
        <g id="人" transform="translate(0 119)">
          <g id="编组-8">
            <path id="路径备份" d="M102.25,170.75q-1.25.5-4.907,2.051L78.67,183,47.5,203.75H0s46.534-27,52.685-30,20.842-9.366,22.175-8.449l9,.044c-5.169,2.118-31.179,21.992-31.179,21.992l27.028-12.214,16.95-7.66,8.707,1.437A28.238,28.238,0,0,1,102.25,170.75Z" fill="url(#linear-gradient)"/>
            <path id="路径备份-2" d="M557.454-170.538q-1.578-.5-6.194-2.051l-21.569-11.2-37.343-19.75H440.392q46.736,26,54.5,29t21.457,8.038h11.342q-6.524-2.118-36.428-22.48,6.748,2.047,29.491,10.19,6.268,2.244,28.157,10.412L562-169.347A35.442,35.442,0,0,1,557.454-170.538Z" transform="translate(1002.392) rotate(180)" fill="url(#linear-gradient-2)"/>
            <g id="分组-4备份-2" transform="translate(134 18) rotate(180)">
              <path id="Path-48" d="M56.526,142.461,56.3,147.09,58.451,146l.115-3.65Z" transform="matrix(-0.966, -0.259, 0.259, -0.966, 75.454, 9.934)" fill-rule="evenodd" fill="url(#linear-gradient-3)"/>
              <path id="Path-46" d="M36.013,144.121l-2.661,3.017,2.042,1.509,2.152-2.965Z" transform="translate(155.121 -54.931) rotate(141)" fill-rule="evenodd" fill="url(#linear-gradient-3)"/>
              <path id="Path-47" d="M30.611,147.29q0-.922,1.524-1.46l2.858,2.716a28.829,28.829,0,0,1,1.584,5.033q0,.692-1.775-.651Q30.611,148.212,30.611,147.29Z" transform="translate(153.988 -54.53) rotate(141)" fill="#002f62" fill-rule="evenodd"/>
              <path id="Path-49" d="M51.155,147.042l3.12-1.416q4.714.269,5.663.8t-1.617,1.545q-5.683,1.268-7.166,1.06T51.155,147.042Z" transform="matrix(-0.966, -0.259, 0.259, -0.966, 70.588, 9.293)" fill="#002f62" fill-rule="evenodd"/>
              <path id="Path-32-Copy-2" d="M64.542,68.91c-5.1-5.328-5.224-5.175-7.462-8.519-1.069-1.6-2.3-2.845-2.23-3.033,1-2.785,4.428-5.9,9.7-13.417l-5.806-3.95c-7.069,8.589-7.388,11.687-8.559,14.96a8.17,8.17,0,0,0-.656,3.164c.559,4.1,5.573,8.838,14.664,14.169Z" transform="matrix(-0.934, 0.358, -0.358, -0.934, 130.39, -24.166)" fill="#ffc4a7"/>
              <path id="Path-30-Copy-3" d="M51.074,28.937q5.407,3.623,6.808,5.638a94.7,94.7,0,0,1,5.224,10.139,10.5,10.5,0,0,1-1.072,4.3,12.759,12.759,0,0,1-3.626,3.055,22.871,22.871,0,0,1-8.331-7.4A16.169,16.169,0,0,1,47.648,34.5Z" transform="translate(46.766 27.547) rotate(-119)" fill-rule="evenodd" fill="url(#linear-gradient-5)"/>
              <path id="Path-30-Copy-3-2" data-name="Path-30-Copy-3" d="M51.62,28.616q5.407,3.623,6.808,5.638a94.7,94.7,0,0,1,5.224,10.139q.675,1.782-1.072,4.3a7.152,7.152,0,0,1-3.626,3.054,22.871,22.871,0,0,1-8.331-7.4,22.244,22.244,0,0,1-3.4-9.994Z" transform="translate(47.312 27.869) rotate(-119)" fill-rule="evenodd" fill="url(#linear-gradient-6)"/>
              <path id="Path-56-Copy-2" d="M39.1,69.36l19.6-3.454q-1.3,9.07-2.812,12.31a34.106,34.106,0,0,1-5.452,7.669q2.426,19.437,1.623,25.484T40.106,142.946a2.755,2.755,0,0,1-1.7.563,2.635,2.635,0,0,1-1.748-.6q6.032-26.558,6.255-31.05c.223-4.492-3.536-16.644-4.286-22.874-.29-2.414-2.7-6.308-1.668-13.705Q37.617,70.566,39.1,69.36Z" transform="translate(95.348) rotate(180)" fill-rule="evenodd" fill="url(#linear-gradient-7)"/>
              <path id="Path-56-Copy" d="M29.416,69.348l18.643-3.18q4.9,25.591,4.9,38.477t-6.5,40.532a4.015,4.015,0,0,1-1.689.275,2.234,2.234,0,0,1-1.6-.6q.942-25.354.722-28.758-.244-3.784-6.782-26.913a54.993,54.993,0,0,1-5.825-9.036Q29.715,76.772,29.416,69.348Z" transform="translate(89.654 -3.131) rotate(176)" fill-rule="evenodd" fill="url(#linear-gradient-8)"/>
              <path id="Path-85" d="M49.933,22.49,42.8,27.554l4.455,3.831,6.644-1.73-.3-2.629Z" transform="translate(100.403 -45.756) rotate(131)" fill-rule="evenodd" fill="url(#linear-gradient-9)"/>
              <path id="Path-36" d="M2.318,43.634c.315-1.027,0-3.279.315-3.79q.9-.537,1.937,3.213.539,5.493-1.581,7.053t-2.119,0Q-.683,44.282.536,44.443C1.756,44.6,2.168,44.443,2.318,43.634Z" transform="translate(4.68) rotate(180)" fill="#ffc4a7" fill-rule="evenodd"/>
              <path id="Path-32-Copy" d="M26.727,69.224c-.938.068-2.874-1.5-3.327-2.259-.934-1.562-2.182-2.146-4.126-5.061-1.063-1.595-2.593-3.576-2.667-5.466s5.038-4.751,10.283-12.264L22.989,38c-7.656,8.145-10.711,13.47-11.427,17.29-.427,2.278,1.007,11.9,10.682,15.125,1.462.487,3.676.557,4.48,1.031Z" transform="translate(76.053 -66.111) rotate(98)" fill="#ffc4a7"/>
              <path id="Path-33" d="M47.653,9.554A4.312,4.312,0,0,0,48.841,12.7c1.44,1.255,2.676,1.954,3.048,2.472A1.106,1.106,0,0,1,51.56,16.9a21.457,21.457,0,0,1,.705,3.109c.113,1.017.61,3.053-.705,4.546s-3.558,1.311-6.019.857A22.167,22.167,0,0,1,39.328,22.9q-.895-5.69-.267-7.29c.619-1.577,3.587-1.376,4.014-2.27C44.821,9.688,47.653,9.554,47.653,9.554Z" transform="translate(91.253) rotate(180)" fill-rule="evenodd" fill="url(#linear-gradient-9)"/>
              <path id="Mask" d="M35.533,32.242c1.451-2.832,2.836-3.579,5.8-3.579h4.382c1.858,0,5.576.159,8.165,2.845q2.589,2.686,3.573,9.331,1.6,9.343,1.129,14.3T56.418,72.719a31.654,31.654,0,0,1-10.7,2.156,53.547,53.547,0,0,1-12.763-2.081,57.394,57.394,0,0,0,2.58-15.2,69.779,69.779,0,0,0-1.721-14.251Q34.082,35.074,35.533,32.242Z" transform="translate(91.643) rotate(180)" fill="url(#linear-gradient-11)"/>
              <path id="Path-30-Copy-2" d="M28.351,31.393q5.42,3.93,6.819,5.954a95.2,95.2,0,0,1,5.216,10.183q.716,2.107-1.569,4.7c-1.7,1.931-3.691,1.709-4.079,1.344-2.5-2.361-3-4.808-4.2-6.4a49.928,49.928,0,0,0-4.606-5.2Z" transform="translate(66.49) rotate(180)" fill-rule="evenodd" fill="url(#linear-gradient-12)"/>
              <path id="Path-25" d="M38.283,14.583q2.111,6.706,3.179,6.706c1.068,0,1.477-.114,2.143-2s-.327-3.294.043-4.19,1.378-.81,2.552-.613a2.29,2.29,0,0,1,1.739,1.333q-.4,2.149.74,2.148c1.144,0,1.616-1.186,1.808-1.887a4.454,4.454,0,0,0,0-1.6c0-.612,2.656.347,4.647-.5s2.724-.6,3.394-3.03A6.491,6.491,0,0,0,57.425,5.7a2.813,2.813,0,0,0-2.284-1.354c-1.3,0-2.55,2.5-3.546,2.985a3.518,3.518,0,0,1-2.582,0l-5.27-1.206a4.789,4.789,0,0,0-4.179,2.564A8.588,8.588,0,0,0,38.283,14.583Z" transform="translate(96.082 -28.461) rotate(147)" fill="#1b212d" fill-rule="evenodd"/>
            </g>
            <g id="分组备份-2" transform="translate(519) rotate(180)">
              <path id="Path-30-Copy" d="M78.691,12.717l-.885,4.032,3,1.975h5.949l1.31-1.976-5.554-.985-1.024-2.533Z" transform="matrix(-0.292, -0.956, 0.956, -0.292, 92.153, 68.19)" fill-rule="evenodd" fill="url(#linear-gradient-3)"/>
              <path id="Path-29-Copy" d="M57.431,18.861a3.733,3.733,0,0,0-1.856,1.6,73.986,73.986,0,0,0,5.883,22.081Q65.868,52.208,79.6,64.125L85.95,52.557q-11.8-6.779-17.311-14.386-5.061-6.987-8.173-19.31C60.282,18.132,58.442,18.53,57.431,18.861Z" transform="translate(141.525) rotate(180)" fill-rule="evenodd" fill="url(#linear-gradient-14)"/>
              <g id="编组-5" transform="translate(90) rotate(180)">
                <g id="Rectangle-11-Copy-20">
                  <rect id="Rectangle_6636" data-name="Rectangle 6636" width="90" height="27.9" rx="1.8"/>
                  <rect id="Rectangle_6637" data-name="Rectangle 6637" width="90" height="27.9" rx="1.8" fill="url(#linear-gradient-15)"/>
                </g>
                <rect id="Rectangle-11-Copy-36" width="53.775" height="5.4" rx="1.8" transform="translate(31.725 5.4)" fill="url(#linear-gradient-16)"/>
                <rect id="Rectangle-11-Copy-37" width="53.775" height="5.4" rx="1.8" transform="translate(31.725 16.875)" fill="url(#linear-gradient-16)"/>
                <circle id="Oval-3-Copy-4" cx="8.663" cy="8.663" r="8.663" transform="translate(7.425 6.075)" fill="url(#linear-gradient-18)"/>
              </g>
              <path id="Path-27" d="M46.135-48.907,52.869-40.6l5.111-2.211-6.83-9.41Z" transform="translate(-10.472 -77.29) rotate(68)" fill-rule="evenodd" fill="url(#linear-gradient-19)"/>
              <path id="Path-26" d="M55.888-33.086q.018-4.23-.43-5.049t.07-4.826l-2.164-.449-2.092-3.578Q49.98-48.808,48.66-47c-1.32,1.8-4.156,6.512-4.39,11.615Q44.036-30.286,55.888-33.086Z" transform="translate(-5.767 -71.445) rotate(68)" fill-rule="evenodd" fill="url(#linear-gradient-19)"/>
              <path id="Path-25-2" data-name="Path-25" d="M35.3-38.178q1.788-5.144,2.691-5.144c.9,0,1.249.086,1.81,1.531s-.278,2.526.034,3.213,1.164.62,2.157.469a1.925,1.925,0,0,0,1.471-1.023q-.339-1.647.627-1.648c.967,0,1.365.909,1.527,1.445s0,.755,0,1.224,2.245-.268,3.927.379,2.3.459,2.867,2.321a4.615,4.615,0,0,1-.938,4.032,2.438,2.438,0,0,1-1.931,1.04c-1.1,0-2.153-1.915-2.995-2.286a3.257,3.257,0,0,0-2.183,0l-4.455.928a4.116,4.116,0,0,1-3.53-1.964A6.093,6.093,0,0,1,35.3-38.178Z" transform="translate(-6.696 -63.734) rotate(68)" fill="#1b212d" fill-rule="evenodd"/>
              <path id="Path-38" d="M70.6-159.43l.021-7.691a4.818,4.818,0,0,0-2.025-1.207q-.628-.056-.6,0l-.027,8.392Z" transform="matrix(1, -0.017, 0.017, 1, 2.871, 1.184)" fill-rule="evenodd" fill="url(#linear-gradient-21)"/>
              <path id="Path-39" d="M39.15-157.11l-2.3-5.958a4.905,4.905,0,0,0-1.661-.507.853.853,0,0,0-.76.535l2.206,7.115Z" fill-rule="evenodd" fill="url(#linear-gradient-21)"/>
              <path id="Path-37" d="M49.738-96.975,35.325-156.1l3.508-1.625q9.251,13.333,14.727,22.788a209.173,209.173,0,0,1,10.34,20.49Z" fill-rule="evenodd" fill="url(#linear-gradient-23)"/>
              <path id="Path-36-2" data-name="Path-36" d="M66.793-97.457q1.783-8.126,4.753-25.454t5.826-35.366l-2.789-.387L54.676-116.4a27.1,27.1,0,0,0-6.414,6.261,36.5,36.5,0,0,0-4.134,9.032Z" transform="translate(27.953 9.832) rotate(-12)" fill-rule="evenodd" fill="url(#linear-gradient-24)"/>
              <path id="Path-32" d="M46.194-101.349c2.045-1.532,5.341-1.337,11.243-1.982a24.668,24.668,0,0,1,11.875,1.711q3.122,23.969,2.647,31.366T66.029-54.6q-.406,4.716-4.55,5.96c-2.042.613-3.143,2.292-4.633,1.585S49.7-50.765,47.061-53.5c-1.673-1.736,4.661-13.9,4.245-24.97a28.188,28.188,0,0,0-5.55-15.684C44.655-95.684,44.149-99.816,46.194-101.349Z" transform="translate(-12.167 -11.285) rotate(10)" fill-rule="evenodd" fill="url(#linear-gradient-25)"/>
              <path id="Path-28" d="M48.708-45.05,47.7-48.432l8.49-6.012,1.284,2.754,1.573-2.034L58.019-49.01l-.348-.234Z" transform="translate(-16.023 -27.217) rotate(25)" fill-rule="evenodd" fill="url(#linear-gradient-26)"/>
              <path id="Path-30" d="M8.661-24.522l-.886-4.03,3-1.973,5.952,0,1.311,1.975-5.557.984-1.024,2.532Z" transform="matrix(0.866, -0.5, 0.5, 0.866, 15.491, 2.767)" fill-rule="evenodd" fill="url(#linear-gradient-19)"/>
              <path id="Path-29" d="M17.392-28.8a4.354,4.354,0,0,1-2.857-1.261,3.721,3.721,0,0,1-1.484-2.556Q24.946-49.645,33-56.776a49.468,49.468,0,0,1,13.163-8.767q1.919-.857,3.261-4.882,5.476,5,5.476,10.914t-6.79,8.664q-2.786-1.112-9.245,2.474A75.878,75.878,0,0,0,17.392-28.8Z" fill-rule="evenodd" fill="url(#linear-gradient-28)"/>
              <path id="Path-40" d="M33.272-161.55l1.169-.021q.08-1.057.766-1.159a8.494,8.494,0,0,1,2.712.431q2.531-1.976,3.443-2.078a5.215,5.215,0,0,0,2.449-.4,2.288,2.288,0,0,0,.964-1.707H33.346q-1.371-.144-1.4,1.531A5.441,5.441,0,0,0,33.272-161.55Z" fill="#36406a" fill-rule="evenodd"/>
              <path id="Path-40-Copy" d="M66.249-164.009l1.252-.022q.086-1.115.82-1.222a9.222,9.222,0,0,1,2.9.454q2.71-2.084,3.686-2.191a5.66,5.66,0,0,0,2.622-.426,2.4,2.4,0,0,0,1.032-1.8H66.328q-1.468-.151-1.494,1.614A5.687,5.687,0,0,0,66.249-164.009Z" transform="matrix(1, -0.017, 0.017, 1, 2.919, 1.226)" fill="#36406a" fill-rule="evenodd"/>
            </g>
          </g>
          <g id="Pic01.3" transform="translate(183 37)">
            <g id="编组-3" data-name="编组" transform="translate(90 26)">
              <path id="路径-3" data-name="路径" d="M14.54,19.17,15.06.25,36.48,9.74,35.14,28.79Z" fill="#f1f0f1"/>
              <path id="路径-4" data-name="路径" d="M14.54,20.17.17,22.83v.75L20.2,33.31l14.94-3.78v-.74Z" fill="#e8e8e8"/>
              <path id="路径-5" data-name="路径" d="M14.54,19.17.17,22.83,20.2,32.57l14.94-3.78Z" fill="#f4f4f4"/>
              <path id="路径-6" data-name="路径" d="M16,2.13l19,8.5-1.12,16L15.56,18Z" fill="#774dfc"/>
            </g>
            <path id="路径-7" data-name="路径" d="M102.25,151c-1.25.5-8,2.25-9.5,3s-14.08,9.25-14.08,9.25L47.5,184H0l43.467-34.666L63,133.25l6.25,2.25L52.685,154l-9.218,13.949S56,163.5,64.25,160.25,91.63,149,91.63,149a15.83,15.83,0,0,1,13.74.15A19.389,19.389,0,0,1,102.25,151Z" fill="url(#linear-gradient)"/>
            <g id="编组-4" data-name="编组" transform="translate(52)">
              <path id="路径-8" data-name="路径" d="M65,57.59a7,7,0,0,1,0,2,5.19,5.19,0,0,1-1.49,2.6,8,8,0,0,1-4.81,1.08,12.81,12.81,0,0,1-2.62-.6l2.17-3.83a22.811,22.811,0,0,0,2.42,0A2,2,0,0,0,62,57.26c.17-.83.34-1.12.83-1.08s.52.88.45,1.29a1.93,1.93,0,0,1-.2.62Z" fill="#ffc6a5"/>
              <path id="路径-9" data-name="路径" d="M28.5,3.75S30.39,8.21,30.92,10a12.36,12.36,0,0,1,0,6.17,3.4,3.4,0,0,1-2,2.33s.1,5,1,6.83L32.24,30l-7.65,4-5.17-4.5,1.4-3.06s1.3-2.06.2-7.15C20.31,16.06,28.5,3.75,28.5,3.75Z" fill="#ffc6a5"/>
              <path id="路径-10" data-name="路径" d="M31.67,2.04c1,.67,1.33,3.79-.08,4.29-1.79.63-3.17,1.17-4.17,1s-.33,2.17,0,3,1.71,2.5,2.52,2.67c-1.52.17-2.58.67-3,0a14.72,14.72,0,0,1,1.19,4,8.09,8.09,0,0,1,0,2.83c-.17.67-1.67,1.33-3,1.5a8.17,8.17,0,0,1-3.5,0c-.83-.33-1.67-2.83-2.17-3.83s-2.67-2.33-3.33-5-.33-4.67.67-6,4.17-3.17,6.17-4,3.5-1.5,5-1.5A6.71,6.71,0,0,1,31.67,2.04Z" fill="#252525"/>
              <path id="路径-11" data-name="路径" d="M53.37,149.15c-.68.27-12.59.26-13.74-.15s0-8.5,0-8.5a9.45,9.45,0,0,1,3.5,0c2.46,3.19,7.91,5.77,10.22,7.22C54.36,148.36,53.81,148.97,53.37,149.15Z" fill="#5e6a81"/>
              <path id="路径-12" data-name="路径" d="M13.63,126.13a14.631,14.631,0,0,0,2.38,5.13c.88,1.25,1.38,2.13,2.13,2.5s.38,2-.87,1.75a68.081,68.081,0,0,0-7.21,0c-1,0-.46-8-.37-9.4S13.63,126.13,13.63,126.13Z" fill="#5e6a81"/>
              <path id="路径-13" data-name="路径" d="M41.75,77.5s.67,9.5,1.33,21.67.67,42.67.67,42.67h-4.5s-2.5-10.17-4-18.67-7.67-35.83-7.83-36.83c-1.83,7.33-6.33,22.17-8.5,28.33s-5.17,12.83-5.17,12.83H9.58s1-15.83,1.33-24.17,1.33-27.5,1.33-27.5Z" fill="#1b1f25"/>
              <path id="路径-14" data-name="路径" d="M5.64,29.66C4.25,31.91,4.75,31,4.25,31.91a28.35,28.35,0,0,0-2.08,7.25c-.75,4-2,8.25-2.08,11.5s.58,6.42,1.08,7.25,3.67,0,5.83-1.5,8-6.33,8-6.33L13.42,45,9.67,47.5A15.64,15.64,0,0,1,6.5,48.58s.58-2.25,1-3.92a63.59,63.59,0,0,1,3.13-6.75Z" fill="#1b1f25"/>
              <path id="路径-15" data-name="路径" d="M20.22,23.87a9,9,0,0,1-1,1.13,24,24,0,0,0,.25,3.83c.21,0,11.54-1.37,11.54-1.37V25.38s-.75-1.58-.92-1.92a9.72,9.72,0,0,1-5.6,2.21A5.22,5.22,0,0,1,20.22,23.87Z" fill="#fff"/>
              <path id="路径-16" data-name="路径" d="M19.33,24.33s1.48,2.37,3.08,2.88a8.06,8.06,0,0,0,5.25-.71,24.74,24.74,0,0,0,3.08-1.75c1.25.42,5.33,2.42,7.42,3.42s4.42,2.5,5.42,4.25,1.17,6.58,1,10.5a59.16,59.16,0,0,0,.06,7.75c.11.5,4.78,2.92,7.28,4s6.17,2.92,6.92,3.17.67.58.58,1.33-.5,2.92-1.67,3.92-3.92.25-5.08,0-9.42-3.08-11.33-4c.08,2.92.75,17.17.83,18.75s-2.33,4.75-6.33,5.58A61.41,61.41,0,0,1,22.67,84.5a19.65,19.65,0,0,1-9.75-3.75c-1.67-1.5-1.5-3.08-1.42-7.67s.75-10.92.75-14.42a99.46,99.46,0,0,0-2.17-15.08c-.67-2.67-3.17-5.33-4.5-9s-1.33-2.67-1.33-2.67a9.74,9.74,0,0,1,4.08-4.5C11.08,26.08,16.75,24,19.33,24.33Z" fill="#292c37"/>
            </g>
          </g>
        </g>
      </g>
    </g>
  </g>
</svg>
