<svg xmlns="http://www.w3.org/2000/svg" width="53.986" height="72" viewBox="0 0 53.986 72">
  <g id="noun-gear-4340332" transform="translate(-139.995 0.006)">
    <path id="Path_146" data-name="Path 146" d="M192.983,31.5l-4.275-.5h0a16.675,16.675,0,0,0-1.183-2.86l2.668-3.375a1.124,1.124,0,0,0-.088-1.493l-4.772-4.778a1.124,1.124,0,0,0-1.493-.087L180.5,21.05V5.619A5.631,5.631,0,0,0,174.87-.006H145.62A5.631,5.631,0,0,0,140,5.619v60.75a5.631,5.631,0,0,0,5.625,5.625h29.25a5.631,5.631,0,0,0,5.625-5.625V50.942l3.346,2.64a1.124,1.124,0,0,0,1.493-.086l4.772-4.773h0a1.124,1.124,0,0,0,.088-1.493l-2.667-3.375a16.871,16.871,0,0,0,1.181-2.864l4.275-.5a1.126,1.126,0,0,0,1-1.118v-6.75a1.125,1.125,0,0,0-1-1.117ZM168.55,2.245l-1.125,2.25h-14.36l-1.125-2.25Zm6.32,67.5H145.62a3.375,3.375,0,0,1-3.375-3.375V5.62a3.375,3.375,0,0,1,3.375-3.375h3.8l1.939,3.878h0a1.125,1.125,0,0,0,1.007.622h15.75a1.125,1.125,0,0,0,1.012-.622l1.933-3.878h3.8a3.375,3.375,0,0,1,3.375,3.375v14.5c-.215-.076-.424-.164-.642-.232l-.5-4.275a1.125,1.125,0,0,0-1.117-1h-6.75a1.125,1.125,0,0,0-1.117.993l-.5,4.275a16.717,16.717,0,0,0-2.86,1.182L161.377,18.4a1.125,1.125,0,0,0-1.492.086l-4.773,4.773h0a1.124,1.124,0,0,0-.088,1.493l2.668,3.375a16.8,16.8,0,0,0-1.182,2.859l-4.275.5a1.125,1.125,0,0,0-.993,1.118v6.75a1.125,1.125,0,0,0,.993,1.117l4.275.5a16.782,16.782,0,0,0,1.182,2.859l-2.668,3.375a1.126,1.126,0,0,0,.087,1.493l4.773,4.773a1.125,1.125,0,0,0,1.486.1l3.375-2.667a16.729,16.729,0,0,0,2.86,1.182l.5,4.275a1.125,1.125,0,0,0,1.117.993h6.75a1.125,1.125,0,0,0,1.117-.993l.5-4.275c.218-.067.428-.156.643-.232v14.5a3.375,3.375,0,0,1-3.369,3.375ZM191.731,38.37l-4.03.475a1.126,1.126,0,0,0-.957.834,14.549,14.549,0,0,1-1.535,3.713,1.124,1.124,0,0,0,.086,1.267l2.512,3.184L184.45,51.2l-3.184-2.513A1.126,1.126,0,0,0,180,48.6a14.5,14.5,0,0,1-3.712,1.534,1.125,1.125,0,0,0-.835.958l-.469,4.028H170.23l-.474-4.031a1.125,1.125,0,0,0-.835-.957,14.5,14.5,0,0,1-3.712-1.535,1.125,1.125,0,0,0-1.268.087L160.758,51.2,157.4,47.839l2.516-3.182A1.125,1.125,0,0,0,160,43.39a14.522,14.522,0,0,1-1.536-3.713,1.125,1.125,0,0,0-.957-.834l-4.03-.475v-4.75l4.031-.475a1.125,1.125,0,0,0,.957-.834A14.544,14.544,0,0,1,160,28.6a1.125,1.125,0,0,0-.087-1.267L157.4,24.147l3.358-3.358,3.185,2.514h0a1.125,1.125,0,0,0,1.267.086,14.515,14.515,0,0,1,3.713-1.536,1.125,1.125,0,0,0,.834-.957l.471-4.027h4.751l.475,4.03a1.126,1.126,0,0,0,.834.957A14.56,14.56,0,0,1,180,23.393a1.125,1.125,0,0,0,1.267-.087l3.184-2.513,3.354,3.358L185.3,27.332a1.124,1.124,0,0,0-.087,1.267,14.567,14.567,0,0,1,1.536,3.712,1.125,1.125,0,0,0,.958.835l4.028.474Z" fill="#003dad"/>
    <path id="Path_147" data-name="Path 147" d="M325.015,201.25a10.138,10.138,0,1,0,7.156,2.969A10.125,10.125,0,0,0,325.015,201.25Zm0,18a7.884,7.884,0,1,1,5.566-2.309A7.874,7.874,0,0,1,325.015,219.25Z" transform="translate(-152.408 -175.38)" fill="#e76b00"/>
    <path id="Path_148" data-name="Path 148" d="M245,507.5h13.5v2.25H245Z" transform="translate(-91.504 -442.255)" fill="#4296e0"/>
    <path id="Path_149" data-name="Path 149" d="M175,70h2.25V81.25H175Z" transform="translate(-30.504 -61.005)" fill="#4296e0"/>
    <path id="Path_150" data-name="Path 150" d="M175,175h2.25v2.25H175Z" transform="translate(-30.504 -152.505)" fill="#4296e0"/>
  </g>
</svg>
