<svg id="help_black_24dp" xmlns="http://www.w3.org/2000/svg" width="24" height="24" viewBox="0 0 24 24">
  <path id="Path_52" data-name="Path 52" d="M0,0H24V24H0Z" fill="none"/>
  <path id="headset_mic_FILL1_wght400_GRAD0_opsz48" d="M14.7,24.156V22.715h7.16v-1.3H18.3V14.305h3.556V12.672a7.1,7.1,0,0,0-2.09-5.13,6.807,6.807,0,0,0-5.07-2.15A6.963,6.963,0,0,0,9.58,7.542a7.022,7.022,0,0,0-2.138,5.13v1.634H11v7.112H7.442A1.478,1.478,0,0,1,6,19.976v-7.3a8.453,8.453,0,0,1,.685-3.388A8.943,8.943,0,0,1,8.547,6.509,8.7,8.7,0,0,1,11.31,4.635,8.453,8.453,0,0,1,14.7,3.95a8.457,8.457,0,0,1,6.1,2.559,8.985,8.985,0,0,1,1.826,2.775,8.584,8.584,0,0,1,.673,3.388V22.715a1.478,1.478,0,0,1-1.442,1.442Z" transform="translate(-2.649 -2.052)" fill="#FFF"/>
</svg>
