<svg id="forward_to_inbox_black_24dp" xmlns="http://www.w3.org/2000/svg" width="24" height="24" viewBox="0 0 24 24">
  <rect id="Rectangle_318" data-name="Rectangle 318" width="24" height="24" fill="none"/>
  <path id="favorite_FILL0_wght400_GRAD0_opsz48" d="M12.207,20.34l-.841-.759q-2.175-1.99-3.591-3.437a25.389,25.389,0,0,1-2.257-2.585A8.538,8.538,0,0,1,4.339,11.5,5.388,5.388,0,0,1,4,9.629,4.241,4.241,0,0,1,8.309,5.3a4.377,4.377,0,0,1,2.165.554,5.257,5.257,0,0,1,1.734,1.6,5.982,5.982,0,0,1,1.826-1.631A4.279,4.279,0,0,1,16.106,5.3a4.241,4.241,0,0,1,4.309,4.329,5.388,5.388,0,0,1-.339,1.867,8.538,8.538,0,0,1-1.18,2.062,25.389,25.389,0,0,1-2.257,2.585q-1.416,1.447-3.591,3.437Zm0-1.621q2.072-1.908,3.416-3.273a27.1,27.1,0,0,0,2.134-2.39,7.918,7.918,0,0,0,1.108-1.826,4.305,4.305,0,0,0,.318-1.6A3.034,3.034,0,0,0,18.322,7.4a2.981,2.981,0,0,0-2.216-.872,3.283,3.283,0,0,0-1.949.646A4.588,4.588,0,0,0,12.7,8.993H11.694a4.538,4.538,0,0,0-1.436-1.806,3.249,3.249,0,0,0-1.949-.657A2.981,2.981,0,0,0,6.093,7.4a3.034,3.034,0,0,0-.862,2.226,4.384,4.384,0,0,0,.318,1.611,7.991,7.991,0,0,0,1.108,1.847A24.626,24.626,0,0,0,8.8,15.477Q10.156,16.831,12.207,18.719ZM12.207,12.625Z" transform="translate(-0.208 -0.82)" fill="#000"/>
</svg>
