<svg id="forward_to_inbox_black_24dp" xmlns="http://www.w3.org/2000/svg" width="24" height="24" viewBox="0 0 24 24">
  <rect id="Rectangle_318" data-name="Rectangle 318" width="24" height="24" fill="none"/>
  <path id="notifications_active_FILL0_wght400_GRAD0_opsz48" d="M6.2,11.027a8.018,8.018,0,0,1,.763-3.446A7.772,7.772,0,0,1,9.141,4.808l.92,1.01A6.8,6.8,0,0,0,8.209,8.142a6.5,6.5,0,0,0-.662,2.885Zm14.66,0a6.786,6.786,0,0,0-.629-2.885,6.448,6.448,0,0,0-1.818-2.324l.92-1.01a7.883,7.883,0,0,1,2.133,2.784,8.147,8.147,0,0,1,.741,3.435ZM7.008,19.266V17.919H8.894v-6.87a5.42,5.42,0,0,1,1.111-3.356,4.789,4.789,0,0,1,2.93-1.852V5.19a1.1,1.1,0,0,1,.37-.853,1.336,1.336,0,0,1,1.774,0,1.1,1.1,0,0,1,.37.853v.651A4.836,4.836,0,0,1,18.39,7.693a5.384,5.384,0,0,1,1.122,3.356v6.87h1.863v1.347ZM14.192,12.643Zm0,9.317a1.741,1.741,0,0,1-1.257-.528,1.712,1.712,0,0,1-.539-1.268h3.592a1.8,1.8,0,0,1-1.8,1.8Zm-3.951-4.041h7.925v-6.87a3.891,3.891,0,0,0-1.145-2.829,3.779,3.779,0,0,0-2.806-1.167A3.815,3.815,0,0,0,11.4,8.221a3.871,3.871,0,0,0-1.156,2.829Z" transform="translate(-2.203 -0.98)" fill="#1d3257"/>
</svg>
