<?xml version="1.0" standalone="no"?>
<!DOCTYPE svg PUBLIC "-//W3C//DTD SVG 20010904//EN"
 "http://www.w3.org/TR/2001/REC-SVG-20010904/DTD/svg10.dtd">
<svg version="1.0" xmlns="http://www.w3.org/2000/svg"
 width="96.000000pt" height="96.000000pt" viewBox="0 0 96.000000 96.000000"
 preserveAspectRatio="xMidYMid meet">

<g transform="translate(0.000000,96.000000) scale(0.100000,-0.100000)"
fill="#FFFFFF" stroke="none">
<path d="M360 585 c0 -8 4 -15 8 -15 4 0 22 -24 40 -53 25 -42 32 -64 32 -105
l0 -52 40 0 40 0 0 52 c0 41 7 63 32 105 18 29 36 53 40 53 4 0 8 7 8 15 0 13
-20 15 -120 15 -100 0 -120 -2 -120 -15z m169 -52 c-12 -21 -26 -42 -31 -47
-4 -6 -8 -29 -8 -53 0 -24 -4 -43 -10 -43 -5 0 -10 19 -10 43 0 24 -4 47 -8
53 -5 5 -19 26 -31 47 l-23 37 72 0 72 0 -23 -37z"/>
</g>
</svg>
